<svg xmlns="http://www.w3.org/2000/svg" xmlns:xlink="http://www.w3.org/1999/xlink" width="1080" zoomAndPan="magnify" viewBox="0 0 810 809.999993" height="1080" preserveAspectRatio="xMidYMid meet" version="1.0"><defs><clipPath id="ca7c292107"><path d="M 29.351562 29.351562 L 780.648438 29.351562 L 780.648438 780.648438 L 29.351562 780.648438 Z M 29.351562 29.351562 " clip-rule="nonzero"/></clipPath></defs><rect x="-81" width="972" fill="#ffffff" y="-80.999999" height="971.999992" fill-opacity="1"/><rect x="-81" width="972" fill="#ffffff" y="-80.999999" height="971.999992" fill-opacity="1"/><g clip-path="url(#ca7c292107)"><path fill="#ffffff" d="M 29.351562 29.351562 L 780.648438 29.351562 L 780.648438 780.648438 L 29.351562 780.648438 Z M 29.351562 29.351562 " fill-opacity="1" fill-rule="nonzero"/></g><path stroke-linecap="butt" transform="matrix(13.180587, 0, 0, 13.180587, 29.353233, 29.35325)" fill-opacity="1" fill="#ffffff" fill-rule="nonzero" stroke-linejoin="miter" d="M 2.000033 2.499998 L 9.000148 2.499998 M 11.999943 2.499998 L 12.999875 2.499998 M 16.999898 2.499998 L 18.000126 2.499998 M 20.999921 2.499998 L 23.000081 2.499998 M 25.999876 2.499998 L 27.000104 2.499998 M 29.9999 2.499998 L 33.999923 2.499998 M 37.000014 2.499998 L 37.999946 2.499998 M 38.999878 2.499998 L 40.000106 2.499998 M 41.000038 2.499998 L 42.999901 2.499998 M 44.000129 2.499998 L 45.000061 2.499998 M 47.999856 2.499998 L 54.999971 2.499998 M 2.000033 3.499929 L 2.999965 3.499929 M 7.99992 3.499929 L 9.000148 3.499929 M 11.000011 3.499929 L 11.999943 3.499929 M 14.000103 3.499929 L 15.999966 3.499929 M 20.999921 3.499929 L 24.000013 3.499929 M 24.999945 3.499929 L 28.000036 3.499929 M 33.999923 3.499929 L 37.000014 3.499929 M 37.999946 3.499929 L 41.000038 3.499929 M 44.000129 3.499929 L 45.999993 3.499929 M 47.999856 3.499929 L 49.000084 3.499929 M 54.000039 3.499929 L 54.999971 3.499929 M 2.000033 4.499861 L 2.999965 4.499861 M 3.999897 4.499861 L 6.999988 4.499861 M 7.99992 4.499861 L 9.000148 4.499861 M 10.00008 4.499861 L 11.000011 4.499861 M 11.999943 4.499861 L 14.000103 4.499861 M 19.99999 4.499861 L 20.999921 4.499861 M 25.999876 4.499861 L 27.000104 4.499861 M 31.000128 4.499861 L 32.000059 4.499861 M 32.999991 4.499861 L 36.000083 4.499861 M 37.000014 4.499861 L 37.999946 4.499861 M 45.000061 4.499861 L 45.999993 4.499861 M 47.999856 4.499861 L 49.000084 4.499861 M 50.000016 4.499861 L 53.000107 4.499861 M 54.000039 4.499861 L 54.999971 4.499861 M 2.000033 5.500089 L 2.999965 5.500089 M 3.999897 5.500089 L 6.999988 5.500089 M 7.99992 5.500089 L 9.000148 5.500089 M 10.00008 5.500089 L 11.000011 5.500089 M 15.000035 5.500089 L 15.999966 5.500089 M 16.999898 5.500089 L 19.99999 5.500089 M 21.999853 5.500089 L 23.000081 5.500089 M 27.000104 5.500089 L 28.999968 5.500089 M 31.000128 5.500089 L 33.999923 5.500089 M 36.000083 5.500089 L 37.000014 5.500089 M 37.999946 5.500089 L 40.000106 5.500089 M 42.999901 5.500089 L 45.000061 5.500089 M 45.999993 5.500089 L 46.999924 5.500089 M 47.999856 5.500089 L 49.000084 5.500089 M 50.000016 5.500089 L 53.000107 5.500089 M 54.000039 5.500089 L 54.999971 5.500089 M 2.000033 6.500021 L 2.999965 6.500021 M 3.999897 6.500021 L 6.999988 6.500021 M 7.99992 6.500021 L 9.000148 6.500021 M 10.00008 6.500021 L 11.000011 6.500021 M 12.999875 6.500021 L 14.000103 6.500021 M 15.000035 6.500021 L 15.999966 6.500021 M 16.999898 6.500021 L 18.000126 6.500021 M 19.000058 6.500021 L 19.99999 6.500021 M 20.999921 6.500021 L 33.999923 6.500021 M 37.999946 6.500021 L 40.000106 6.500021 M 42.999901 6.500021 L 45.000061 6.500021 M 47.999856 6.500021 L 49.000084 6.500021 M 50.000016 6.500021 L 53.000107 6.500021 M 54.000039 6.500021 L 54.999971 6.500021 M 2.000033 7.499953 L 2.999965 7.499953 M 7.99992 7.499953 L 9.000148 7.499953 M 10.00008 7.499953 L 12.999875 7.499953 M 14.000103 7.499953 L 15.000035 7.499953 M 16.999898 7.499953 L 19.000058 7.499953 M 19.99999 7.499953 L 21.999853 7.499953 M 24.000013 7.499953 L 24.999945 7.499953 M 25.999876 7.499953 L 27.000104 7.499953 M 29.9999 7.499953 L 33.999923 7.499953 M 34.999854 7.499953 L 36.000083 7.499953 M 37.000014 7.499953 L 38.999878 7.499953 M 40.000106 7.499953 L 41.000038 7.499953 M 41.999969 7.499953 L 42.999901 7.499953 M 44.000129 7.499953 L 45.000061 7.499953 M 47.999856 7.499953 L 49.000084 7.499953 M 54.000039 7.499953 L 54.999971 7.499953 M 2.000033 8.499884 L 9.000148 8.499884 M 10.00008 8.499884 L 11.000011 8.499884 M 11.999943 8.499884 L 12.999875 8.499884 M 14.000103 8.499884 L 15.000035 8.499884 M 15.999966 8.499884 L 16.999898 8.499884 M 18.000126 8.499884 L 19.000058 8.499884 M 19.99999 8.499884 L 20.999921 8.499884 M 21.999853 8.499884 L 23.000081 8.499884 M 24.000013 8.499884 L 24.999945 8.499884 M 25.999876 8.499884 L 27.000104 8.499884 M 28.000036 8.499884 L 28.999968 8.499884 M 29.9999 8.499884 L 31.000128 8.499884 M 32.000059 8.499884 L 32.999991 8.499884 M 33.999923 8.499884 L 34.999854 8.499884 M 36.000083 8.499884 L 37.000014 8.499884 M 37.999946 8.499884 L 38.999878 8.499884 M 40.000106 8.499884 L 41.000038 8.499884 M 41.999969 8.499884 L 42.999901 8.499884 M 44.000129 8.499884 L 45.000061 8.499884 M 45.999993 8.499884 L 46.999924 8.499884 M 47.999856 8.499884 L 54.999971 8.499884 M 10.00008 9.500112 L 11.000011 9.500112 M 11.999943 9.500112 L 14.000103 9.500112 M 15.000035 9.500112 L 15.999966 9.500112 M 19.000058 9.500112 L 23.000081 9.500112 M 24.000013 9.500112 L 27.000104 9.500112 M 29.9999 9.500112 L 32.000059 9.500112 M 33.999923 9.500112 L 36.000083 9.500112 M 37.000014 9.500112 L 37.999946 9.500112 M 41.000038 9.500112 L 46.999924 9.500112 M 2.000033 10.500044 L 2.999965 10.500044 M 3.999897 10.500044 L 9.000148 10.500044 M 11.000011 10.500044 L 14.000103 10.500044 M 15.999966 10.500044 L 20.999921 10.500044 M 21.999853 10.500044 L 23.000081 10.500044 M 24.999945 10.500044 L 31.000128 10.500044 M 32.999991 10.500044 L 33.999923 10.500044 M 34.999854 10.500044 L 38.999878 10.500044 M 40.000106 10.500044 L 41.000038 10.500044 M 42.999901 10.500044 L 44.000129 10.500044 M 45.999993 10.500044 L 46.999924 10.500044 M 47.999856 10.500044 L 53.000107 10.500044 M 2.000033 11.499976 L 3.999897 11.499976 M 5.000125 11.499976 L 6.000056 11.499976 M 9.000148 11.499976 L 11.000011 11.499976 M 11.999943 11.499976 L 15.000035 11.499976 M 16.999898 11.499976 L 18.000126 11.499976 M 19.000058 11.499976 L 19.99999 11.499976 M 20.999921 11.499976 L 23.000081 11.499976 M 24.000013 11.499976 L 24.999945 11.499976 M 25.999876 11.499976 L 28.999968 11.499976 M 29.9999 11.499976 L 32.999991 11.499976 M 33.999923 11.499976 L 34.999854 11.499976 M 37.000014 11.499976 L 40.000106 11.499976 M 42.999901 11.499976 L 45.999993 11.499976 M 46.999924 11.499976 L 47.999856 11.499976 M 49.000084 11.499976 L 50.000016 11.499976 M 51.999879 11.499976 L 53.000107 11.499976 M 54.000039 11.499976 L 54.999971 11.499976 M 2.000033 12.499908 L 2.999965 12.499908 M 5.000125 12.499908 L 6.000056 12.499908 M 6.999988 12.499908 L 11.999943 12.499908 M 12.999875 12.499908 L 15.000035 12.499908 M 16.999898 12.499908 L 19.000058 12.499908 M 20.999921 12.499908 L 21.999853 12.499908 M 24.000013 12.499908 L 24.999945 12.499908 M 27.000104 12.499908 L 28.999968 12.499908 M 38.999878 12.499908 L 40.000106 12.499908 M 41.000038 12.499908 L 41.999969 12.499908 M 42.999901 12.499908 L 44.000129 12.499908 M 45.999993 12.499908 L 46.999924 12.499908 M 47.999856 12.499908 L 49.000084 12.499908 M 50.000016 12.499908 L 50.999948 12.499908 M 2.999965 13.500136 L 6.000056 13.500136 M 6.999988 13.500136 L 7.99992 13.500136 M 9.000148 13.500136 L 10.00008 13.500136 M 14.000103 13.500136 L 15.000035 13.500136 M 15.999966 13.500136 L 18.000126 13.500136 M 20.999921 13.500136 L 21.999853 13.500136 M 23.000081 13.500136 L 28.000036 13.500136 M 32.000059 13.500136 L 32.999991 13.500136 M 33.999923 13.500136 L 34.999854 13.500136 M 37.000014 13.500136 L 37.999946 13.500136 M 38.999878 13.500136 L 41.000038 13.500136 M 41.999969 13.500136 L 42.999901 13.500136 M 47.999856 13.500136 L 50.000016 13.500136 M 50.999948 13.500136 L 51.999879 13.500136 M 53.000107 13.500136 L 54.000039 13.500136 M 3.999897 14.500067 L 10.00008 14.500067 M 11.999943 14.500067 L 14.000103 14.500067 M 15.000035 14.500067 L 15.999966 14.500067 M 19.000058 14.500067 L 20.999921 14.500067 M 23.000081 14.500067 L 24.000013 14.500067 M 24.999945 14.500067 L 25.999876 14.500067 M 29.9999 14.500067 L 32.000059 14.500067 M 32.999991 14.500067 L 33.999923 14.500067 M 37.999946 14.500067 L 38.999878 14.500067 M 40.000106 14.500067 L 41.000038 14.500067 M 45.000061 14.500067 L 46.999924 14.500067 M 47.999856 14.500067 L 50.999948 14.500067 M 51.999879 14.500067 L 54.999971 14.500067 M 2.999965 15.499999 L 3.999897 15.499999 M 5.000125 15.499999 L 6.000056 15.499999 M 9.000148 15.499999 L 11.000011 15.499999 M 15.000035 15.499999 L 19.000058 15.499999 M 20.999921 15.499999 L 23.000081 15.499999 M 24.000013 15.499999 L 28.000036 15.499999 M 29.9999 15.499999 L 31.000128 15.499999 M 32.000059 15.499999 L 33.999923 15.499999 M 37.999946 15.499999 L 40.000106 15.499999 M 41.000038 15.499999 L 41.999969 15.499999 M 44.000129 15.499999 L 45.000061 15.499999 M 49.000084 15.499999 L 53.000107 15.499999 M 54.000039 15.499999 L 54.999971 15.499999 M 2.000033 16.499931 L 6.000056 16.499931 M 7.99992 16.499931 L 10.00008 16.499931 M 14.000103 16.499931 L 15.999966 16.499931 M 19.99999 16.499931 L 20.999921 16.499931 M 21.999853 16.499931 L 23.000081 16.499931 M 24.000013 16.499931 L 25.999876 16.499931 M 28.000036 16.499931 L 28.999968 16.499931 M 31.000128 16.499931 L 32.000059 16.499931 M 33.999923 16.499931 L 37.999946 16.499931 M 40.000106 16.499931 L 44.000129 16.499931 M 46.999924 16.499931 L 47.999856 16.499931 M 50.999948 16.499931 L 54.000039 16.499931 M 3.999897 17.499863 L 6.999988 17.499863 M 10.00008 17.499863 L 11.000011 17.499863 M 14.000103 17.499863 L 15.999966 17.499863 M 16.999898 17.499863 L 18.000126 17.499863 M 19.000058 17.499863 L 23.000081 17.499863 M 24.000013 17.499863 L 24.999945 17.499863 M 25.999876 17.499863 L 28.000036 17.499863 M 29.9999 17.499863 L 31.000128 17.499863 M 32.000059 17.499863 L 32.999991 17.499863 M 33.999923 17.499863 L 34.999854 17.499863 M 36.000083 17.499863 L 37.999946 17.499863 M 38.999878 17.499863 L 44.000129 17.499863 M 45.000061 17.499863 L 45.999993 17.499863 M 49.000084 17.499863 L 50.000016 17.499863 M 50.999948 17.499863 L 51.999879 17.499863 M 3.999897 18.500091 L 5.000125 18.500091 M 6.000056 18.500091 L 6.999988 18.500091 M 7.99992 18.500091 L 9.000148 18.500091 M 11.000011 18.500091 L 12.999875 18.500091 M 18.000126 18.500091 L 19.99999 18.500091 M 20.999921 18.500091 L 21.999853 18.500091 M 24.999945 18.500091 L 25.999876 18.500091 M 28.000036 18.500091 L 28.999968 18.500091 M 29.9999 18.500091 L 32.000059 18.500091 M 32.999991 18.500091 L 33.999923 18.500091 M 37.000014 18.500091 L 41.000038 18.500091 M 42.999901 18.500091 L 45.999993 18.500091 M 46.999924 18.500091 L 47.999856 18.500091 M 49.000084 18.500091 L 50.999948 18.500091 M 51.999879 18.500091 L 53.000107 18.500091 M 2.000033 19.500022 L 3.999897 19.500022 M 5.000125 19.500022 L 6.000056 19.500022 M 6.999988 19.500022 L 7.99992 19.500022 M 11.000011 19.500022 L 11.999943 19.500022 M 16.999898 19.500022 L 19.000058 19.500022 M 19.99999 19.500022 L 20.999921 19.500022 M 21.999853 19.500022 L 23.000081 19.500022 M 24.000013 19.500022 L 27.000104 19.500022 M 28.999968 19.500022 L 32.999991 19.500022 M 38.999878 19.500022 L 40.000106 19.500022 M 41.999969 19.500022 L 45.999993 19.500022 M 54.000039 19.500022 L 54.999971 19.500022 M 3.999897 20.499954 L 6.999988 20.499954 M 7.99992 20.499954 L 10.00008 20.499954 M 11.999943 20.499954 L 16.999898 20.499954 M 19.000058 20.499954 L 21.999853 20.499954 M 24.000013 20.499954 L 24.999945 20.499954 M 28.999968 20.499954 L 29.9999 20.499954 M 32.999991 20.499954 L 33.999923 20.499954 M 34.999854 20.499954 L 38.999878 20.499954 M 40.000106 20.499954 L 41.999969 20.499954 M 44.000129 20.499954 L 50.000016 20.499954 M 50.999948 20.499954 L 53.000107 20.499954 M 9.000148 21.499886 L 10.00008 21.499886 M 11.999943 21.499886 L 12.999875 21.499886 M 14.000103 21.499886 L 15.999966 21.499886 M 16.999898 21.499886 L 20.999921 21.499886 M 23.000081 21.499886 L 28.000036 21.499886 M 28.999968 21.499886 L 32.000059 21.499886 M 32.999991 21.499886 L 34.999854 21.499886 M 36.000083 21.499886 L 37.000014 21.499886 M 38.999878 21.499886 L 40.000106 21.499886 M 41.000038 21.499886 L 45.000061 21.499886 M 46.999924 21.499886 L 47.999856 21.499886 M 49.000084 21.499886 L 50.000016 21.499886 M 50.999948 21.499886 L 51.999879 21.499886 M 2.000033 22.500114 L 2.999965 22.500114 M 5.000125 22.500114 L 6.000056 22.500114 M 7.99992 22.500114 L 9.000148 22.500114 M 10.00008 22.500114 L 11.000011 22.500114 M 11.999943 22.500114 L 14.000103 22.500114 M 15.000035 22.500114 L 15.999966 22.500114 M 16.999898 22.500114 L 18.000126 22.500114 M 21.999853 22.500114 L 23.000081 22.500114 M 24.000013 22.500114 L 25.999876 22.500114 M 28.000036 22.500114 L 28.999968 22.500114 M 29.9999 22.500114 L 31.000128 22.500114 M 32.000059 22.500114 L 33.999923 22.500114 M 36.000083 22.500114 L 40.000106 22.500114 M 41.000038 22.500114 L 41.999969 22.500114 M 42.999901 22.500114 L 46.999924 22.500114 M 47.999856 22.500114 L 50.999948 22.500114 M 51.999879 22.500114 L 53.000107 22.500114 M 2.000033 23.500046 L 2.999965 23.500046 M 5.000125 23.500046 L 7.99992 23.500046 M 9.000148 23.500046 L 11.000011 23.500046 M 11.999943 23.500046 L 14.000103 23.500046 M 15.999966 23.500046 L 16.999898 23.500046 M 18.000126 23.500046 L 19.000058 23.500046 M 23.000081 23.500046 L 24.000013 23.500046 M 24.999945 23.500046 L 28.000036 23.500046 M 28.999968 23.500046 L 32.999991 23.500046 M 33.999923 23.500046 L 34.999854 23.500046 M 38.999878 23.500046 L 40.000106 23.500046 M 41.999969 23.500046 L 42.999901 23.500046 M 44.000129 23.500046 L 45.999993 23.500046 M 50.999948 23.500046 L 53.000107 23.500046 M 2.000033 24.499977 L 5.000125 24.499977 M 7.99992 24.499977 L 11.000011 24.499977 M 11.999943 24.499977 L 12.999875 24.499977 M 15.000035 24.499977 L 18.000126 24.499977 M 19.000058 24.499977 L 20.999921 24.499977 M 24.000013 24.499977 L 24.999945 24.499977 M 25.999876 24.499977 L 27.000104 24.499977 M 31.000128 24.499977 L 32.999991 24.499977 M 33.999923 24.499977 L 37.999946 24.499977 M 38.999878 24.499977 L 41.999969 24.499977 M 45.000061 24.499977 L 50.000016 24.499977 M 50.999948 24.499977 L 51.999879 24.499977 M 2.999965 25.499909 L 3.999897 25.499909 M 6.999988 25.499909 L 7.99992 25.499909 M 12.999875 25.499909 L 14.000103 25.499909 M 15.999966 25.499909 L 16.999898 25.499909 M 18.000126 25.499909 L 19.000058 25.499909 M 19.99999 25.499909 L 25.999876 25.499909 M 27.000104 25.499909 L 28.000036 25.499909 M 31.000128 25.499909 L 32.000059 25.499909 M 33.999923 25.499909 L 34.999854 25.499909 M 38.999878 25.499909 L 42.999901 25.499909 M 45.000061 25.499909 L 47.999856 25.499909 M 50.999948 25.499909 L 51.999879 25.499909 M 2.000033 26.500137 L 5.000125 26.500137 M 6.000056 26.500137 L 11.999943 26.500137 M 14.000103 26.500137 L 15.999966 26.500137 M 18.000126 26.500137 L 19.000058 26.500137 M 19.99999 26.500137 L 23.000081 26.500137 M 25.999876 26.500137 L 32.000059 26.500137 M 32.999991 26.500137 L 33.999923 26.500137 M 37.000014 26.500137 L 38.999878 26.500137 M 40.000106 26.500137 L 41.000038 26.500137 M 42.999901 26.500137 L 45.000061 26.500137 M 45.999993 26.500137 L 53.000107 26.500137 M 54.000039 26.500137 L 54.999971 26.500137 M 2.000033 27.500069 L 2.999965 27.500069 M 3.999897 27.500069 L 5.000125 27.500069 M 6.000056 27.500069 L 6.999988 27.500069 M 10.00008 27.500069 L 11.999943 27.500069 M 15.000035 27.500069 L 16.999898 27.500069 M 18.000126 27.500069 L 19.99999 27.500069 M 20.999921 27.500069 L 21.999853 27.500069 M 23.000081 27.500069 L 27.000104 27.500069 M 29.9999 27.500069 L 32.999991 27.500069 M 34.999854 27.500069 L 36.000083 27.500069 M 37.000014 27.500069 L 40.000106 27.500069 M 41.000038 27.500069 L 41.999969 27.500069 M 42.999901 27.500069 L 46.999924 27.500069 M 50.000016 27.500069 L 51.999879 27.500069 M 53.000107 27.500069 L 54.999971 27.500069 M 2.999965 28.500001 L 3.999897 28.500001 M 5.000125 28.500001 L 6.999988 28.500001 M 7.99992 28.500001 L 9.000148 28.500001 M 10.00008 28.500001 L 11.999943 28.500001 M 12.999875 28.500001 L 14.000103 28.500001 M 18.000126 28.500001 L 19.000058 28.500001 M 19.99999 28.500001 L 23.000081 28.500001 M 24.999945 28.500001 L 27.000104 28.500001 M 28.000036 28.500001 L 28.999968 28.500001 M 29.9999 28.500001 L 31.000128 28.500001 M 32.999991 28.500001 L 33.999923 28.500001 M 36.000083 28.500001 L 37.000014 28.500001 M 38.999878 28.500001 L 41.000038 28.500001 M 45.000061 28.500001 L 46.999924 28.500001 M 47.999856 28.500001 L 49.000084 28.500001 M 50.000016 28.500001 L 50.999948 28.500001 M 2.999965 29.499932 L 3.999897 29.499932 M 6.000056 29.499932 L 6.999988 29.499932 M 10.00008 29.499932 L 11.000011 29.499932 M 15.000035 29.499932 L 20.999921 29.499932 M 24.999945 29.499932 L 27.000104 29.499932 M 29.9999 29.499932 L 31.000128 29.499932 M 33.999923 29.499932 L 34.999854 29.499932 M 38.999878 29.499932 L 40.000106 29.499932 M 41.000038 29.499932 L 45.000061 29.499932 M 45.999993 29.499932 L 46.999924 29.499932 M 50.000016 29.499932 L 51.999879 29.499932 M 53.000107 29.499932 L 54.000039 29.499932 M 2.000033 30.499864 L 3.999897 30.499864 M 5.000125 30.499864 L 15.000035 30.499864 M 19.99999 30.499864 L 20.999921 30.499864 M 21.999853 30.499864 L 23.000081 30.499864 M 24.999945 30.499864 L 32.000059 30.499864 M 32.999991 30.499864 L 33.999923 30.499864 M 37.000014 30.499864 L 40.000106 30.499864 M 42.999901 30.499864 L 44.000129 30.499864 M 45.000061 30.499864 L 54.000039 30.499864 M 2.999965 31.500092 L 6.000056 31.500092 M 11.000011 31.500092 L 14.000103 31.500092 M 16.999898 31.500092 L 18.000126 31.500092 M 19.000058 31.500092 L 20.999921 31.500092 M 21.999853 31.500092 L 23.000081 31.500092 M 24.000013 31.500092 L 25.999876 31.500092 M 28.000036 31.500092 L 29.9999 31.500092 M 32.000059 31.500092 L 33.999923 31.500092 M 34.999854 31.500092 L 36.000083 31.500092 M 37.999946 31.500092 L 40.000106 31.500092 M 41.999969 31.500092 L 45.000061 31.500092 M 45.999993 31.500092 L 46.999924 31.500092 M 50.000016 31.500092 L 54.999971 31.500092 M 2.999965 32.500024 L 6.999988 32.500024 M 7.99992 32.500024 L 9.000148 32.500024 M 10.00008 32.500024 L 11.000011 32.500024 M 11.999943 32.500024 L 12.999875 32.500024 M 14.000103 32.500024 L 15.000035 32.500024 M 16.999898 32.500024 L 18.000126 32.500024 M 19.000058 32.500024 L 21.999853 32.500024 M 24.000013 32.500024 L 24.999945 32.500024 M 27.000104 32.500024 L 28.000036 32.500024 M 29.9999 32.500024 L 32.000059 32.500024 M 32.999991 32.500024 L 33.999923 32.500024 M 34.999854 32.500024 L 38.999878 32.500024 M 42.999901 32.500024 L 44.000129 32.500024 M 45.999993 32.500024 L 46.999924 32.500024 M 49.000084 32.500024 L 50.999948 32.500024 M 2.000033 33.499956 L 2.999965 33.499956 M 3.999897 33.499956 L 6.999988 33.499956 M 9.000148 33.499956 L 11.000011 33.499956 M 12.999875 33.499956 L 18.000126 33.499956 M 19.000058 33.499956 L 20.999921 33.499956 M 24.999945 33.499956 L 25.999876 33.499956 M 27.000104 33.499956 L 28.999968 33.499956 M 31.000128 33.499956 L 32.999991 33.499956 M 33.999923 33.499956 L 34.999854 33.499956 M 36.000083 33.499956 L 37.000014 33.499956 M 38.999878 33.499956 L 40.000106 33.499956 M 41.000038 33.499956 L 46.999924 33.499956 M 47.999856 33.499956 L 50.999948 33.499956 M 54.000039 33.499956 L 54.999971 33.499956 M 2.999965 34.499887 L 3.999897 34.499887 M 6.999988 34.499887 L 11.000011 34.499887 M 11.999943 34.499887 L 14.000103 34.499887 M 18.000126 34.499887 L 21.999853 34.499887 M 24.999945 34.499887 L 28.000036 34.499887 M 28.999968 34.499887 L 31.000128 34.499887 M 32.999991 34.499887 L 33.999923 34.499887 M 37.000014 34.499887 L 38.999878 34.499887 M 40.000106 34.499887 L 41.000038 34.499887 M 42.999901 34.499887 L 45.000061 34.499887 M 45.999993 34.499887 L 50.000016 34.499887 M 50.999948 34.499887 L 53.000107 34.499887 M 54.000039 34.499887 L 54.999971 34.499887 M 2.999965 35.500115 L 3.999897 35.500115 M 9.000148 35.500115 L 11.000011 35.500115 M 12.999875 35.500115 L 15.000035 35.500115 M 16.999898 35.500115 L 18.000126 35.500115 M 19.000058 35.500115 L 19.99999 35.500115 M 20.999921 35.500115 L 21.999853 35.500115 M 23.000081 35.500115 L 25.999876 35.500115 M 28.000036 35.500115 L 28.999968 35.500115 M 31.000128 35.500115 L 32.999991 35.500115 M 34.999854 35.500115 L 36.000083 35.500115 M 37.999946 35.500115 L 40.000106 35.500115 M 41.999969 35.500115 L 45.000061 35.500115 M 46.999924 35.500115 L 50.999948 35.500115 M 53.000107 35.500115 L 54.999971 35.500115 M 3.999897 36.500047 L 6.999988 36.500047 M 7.99992 36.500047 L 9.000148 36.500047 M 11.000011 36.500047 L 11.999943 36.500047 M 14.000103 36.500047 L 16.999898 36.500047 M 19.000058 36.500047 L 19.99999 36.500047 M 20.999921 36.500047 L 21.999853 36.500047 M 27.000104 36.500047 L 28.000036 36.500047 M 28.999968 36.500047 L 31.000128 36.500047 M 32.999991 36.500047 L 34.999854 36.500047 M 36.000083 36.500047 L 37.000014 36.500047 M 38.999878 36.500047 L 40.000106 36.500047 M 41.000038 36.500047 L 41.999969 36.500047 M 44.000129 36.500047 L 45.000061 36.500047 M 45.999993 36.500047 L 47.999856 36.500047 M 50.000016 36.500047 L 53.000107 36.500047 M 3.999897 37.499979 L 7.99992 37.499979 M 9.000148 37.499979 L 14.000103 37.499979 M 15.000035 37.499979 L 15.999966 37.499979 M 16.999898 37.499979 L 19.99999 37.499979 M 20.999921 37.499979 L 21.999853 37.499979 M 25.999876 37.499979 L 27.000104 37.499979 M 32.999991 37.499979 L 49.000084 37.499979 M 50.000016 37.499979 L 51.999879 37.499979 M 54.000039 37.499979 L 54.999971 37.499979 M 3.999897 38.499911 L 5.000125 38.499911 M 6.999988 38.499911 L 16.999898 38.499911 M 19.000058 38.499911 L 19.99999 38.499911 M 24.999945 38.499911 L 25.999876 38.499911 M 27.000104 38.499911 L 28.000036 38.499911 M 31.000128 38.499911 L 33.999923 38.499911 M 34.999854 38.499911 L 36.000083 38.499911 M 37.000014 38.499911 L 40.000106 38.499911 M 44.000129 38.499911 L 45.000061 38.499911 M 51.999879 38.499911 L 54.000039 38.499911 M 2.000033 39.500139 L 2.999965 39.500139 M 6.999988 39.500139 L 7.99992 39.500139 M 9.000148 39.500139 L 10.00008 39.500139 M 12.999875 39.500139 L 15.000035 39.500139 M 18.000126 39.500139 L 20.999921 39.500139 M 24.000013 39.500139 L 25.999876 39.500139 M 28.999968 39.500139 L 29.9999 39.500139 M 31.000128 39.500139 L 33.999923 39.500139 M 37.000014 39.500139 L 37.999946 39.500139 M 38.999878 39.500139 L 40.000106 39.500139 M 41.000038 39.500139 L 47.999856 39.500139 M 49.000084 39.500139 L 50.999948 39.500139 M 51.999879 39.500139 L 54.999971 39.500139 M 3.999897 40.50007 L 5.000125 40.50007 M 6.999988 40.50007 L 10.00008 40.50007 M 15.000035 40.50007 L 15.999966 40.50007 M 16.999898 40.50007 L 18.000126 40.50007 M 20.999921 40.50007 L 24.000013 40.50007 M 28.000036 40.50007 L 31.000128 40.50007 M 32.999991 40.50007 L 33.999923 40.50007 M 34.999854 40.50007 L 37.000014 40.50007 M 40.000106 40.50007 L 41.000038 40.50007 M 41.999969 40.50007 L 42.999901 40.50007 M 44.000129 40.50007 L 46.999924 40.50007 M 50.999948 40.50007 L 51.999879 40.50007 M 2.000033 41.500002 L 2.999965 41.500002 M 6.000056 41.500002 L 7.99992 41.500002 M 9.000148 41.500002 L 10.00008 41.500002 M 12.999875 41.500002 L 18.000126 41.500002 M 19.99999 41.500002 L 20.999921 41.500002 M 21.999853 41.500002 L 23.000081 41.500002 M 27.000104 41.500002 L 28.000036 41.500002 M 28.999968 41.500002 L 29.9999 41.500002 M 31.000128 41.500002 L 34.999854 41.500002 M 36.000083 41.500002 L 37.000014 41.500002 M 38.999878 41.500002 L 40.000106 41.500002 M 41.999969 41.500002 L 45.000061 41.500002 M 45.999993 41.500002 L 46.999924 41.500002 M 47.999856 41.500002 L 50.000016 41.500002 M 50.999948 41.500002 L 51.999879 41.500002 M 53.000107 41.500002 L 54.000039 41.500002 M 2.000033 42.499934 L 5.000125 42.499934 M 6.000056 42.499934 L 6.999988 42.499934 M 7.99992 42.499934 L 9.000148 42.499934 M 10.00008 42.499934 L 11.000011 42.499934 M 11.999943 42.499934 L 15.000035 42.499934 M 15.999966 42.499934 L 16.999898 42.499934 M 18.000126 42.499934 L 19.99999 42.499934 M 20.999921 42.499934 L 21.999853 42.499934 M 23.000081 42.499934 L 24.000013 42.499934 M 25.999876 42.499934 L 28.000036 42.499934 M 31.000128 42.499934 L 32.000059 42.499934 M 32.999991 42.499934 L 33.999923 42.499934 M 37.999946 42.499934 L 38.999878 42.499934 M 51.999879 42.499934 L 53.000107 42.499934 M 2.000033 43.499866 L 2.999965 43.499866 M 6.999988 43.499866 L 7.99992 43.499866 M 9.000148 43.499866 L 11.000011 43.499866 M 12.999875 43.499866 L 16.999898 43.499866 M 19.99999 43.499866 L 21.999853 43.499866 M 28.000036 43.499866 L 29.9999 43.499866 M 31.000128 43.499866 L 32.999991 43.499866 M 33.999923 43.499866 L 36.000083 43.499866 M 37.000014 43.499866 L 40.000106 43.499866 M 41.999969 43.499866 L 45.000061 43.499866 M 49.000084 43.499866 L 51.999879 43.499866 M 53.000107 43.499866 L 54.999971 43.499866 M 2.000033 44.500094 L 3.999897 44.500094 M 5.000125 44.500094 L 9.000148 44.500094 M 11.000011 44.500094 L 11.999943 44.500094 M 15.000035 44.500094 L 15.999966 44.500094 M 16.999898 44.500094 L 20.999921 44.500094 M 23.000081 44.500094 L 24.000013 44.500094 M 28.999968 44.500094 L 32.999991 44.500094 M 33.999923 44.500094 L 37.000014 44.500094 M 37.999946 44.500094 L 38.999878 44.500094 M 40.000106 44.500094 L 44.000129 44.500094 M 45.000061 44.500094 L 45.999993 44.500094 M 49.000084 44.500094 L 50.000016 44.500094 M 50.999948 44.500094 L 51.999879 44.500094 M 2.999965 45.500025 L 5.000125 45.500025 M 9.000148 45.500025 L 14.000103 45.500025 M 15.000035 45.500025 L 19.000058 45.500025 M 19.99999 45.500025 L 21.999853 45.500025 M 23.000081 45.500025 L 24.999945 45.500025 M 25.999876 45.500025 L 28.000036 45.500025 M 32.000059 45.500025 L 32.999991 45.500025 M 33.999923 45.500025 L 36.000083 45.500025 M 37.999946 45.500025 L 40.000106 45.500025 M 41.999969 45.500025 L 44.000129 45.500025 M 45.000061 45.500025 L 45.999993 45.500025 M 46.999924 45.500025 L 51.999879 45.500025 M 53.000107 45.500025 L 54.000039 45.500025 M 5.000125 46.499957 L 6.000056 46.499957 M 7.99992 46.499957 L 10.00008 46.499957 M 11.000011 46.499957 L 14.000103 46.499957 M 15.000035 46.499957 L 18.000126 46.499957 M 19.99999 46.499957 L 23.000081 46.499957 M 25.999876 46.499957 L 32.000059 46.499957 M 32.999991 46.499957 L 33.999923 46.499957 M 37.000014 46.499957 L 38.999878 46.499957 M 40.000106 46.499957 L 41.000038 46.499957 M 45.999993 46.499957 L 50.999948 46.499957 M 51.999879 46.499957 L 53.000107 46.499957 M 10.00008 47.499889 L 11.000011 47.499889 M 11.999943 47.499889 L 12.999875 47.499889 M 15.000035 47.499889 L 16.999898 47.499889 M 18.000126 47.499889 L 19.99999 47.499889 M 21.999853 47.499889 L 24.999945 47.499889 M 25.999876 47.499889 L 27.000104 47.499889 M 29.9999 47.499889 L 34.999854 47.499889 M 37.999946 47.499889 L 40.000106 47.499889 M 42.999901 47.499889 L 46.999924 47.499889 M 50.000016 47.499889 L 51.999879 47.499889 M 2.000033 48.500117 L 9.000148 48.500117 M 11.000011 48.500117 L 14.000103 48.500117 M 15.000035 48.500117 L 16.999898 48.500117 M 18.000126 48.500117 L 20.999921 48.500117 M 24.000013 48.500117 L 24.999945 48.500117 M 25.999876 48.500117 L 27.000104 48.500117 M 28.000036 48.500117 L 28.999968 48.500117 M 29.9999 48.500117 L 31.000128 48.500117 M 32.999991 48.500117 L 37.999946 48.500117 M 40.000106 48.500117 L 41.000038 48.500117 M 45.000061 48.500117 L 46.999924 48.500117 M 47.999856 48.500117 L 49.000084 48.500117 M 50.000016 48.500117 L 50.999948 48.500117 M 2.000033 49.500049 L 2.999965 49.500049 M 7.99992 49.500049 L 9.000148 49.500049 M 10.00008 49.500049 L 11.000011 49.500049 M 11.999943 49.500049 L 15.000035 49.500049 M 16.999898 49.500049 L 18.000126 49.500049 M 20.999921 49.500049 L 21.999853 49.500049 M 23.000081 49.500049 L 24.999945 49.500049 M 25.999876 49.500049 L 27.000104 49.500049 M 29.9999 49.500049 L 31.000128 49.500049 M 32.000059 49.500049 L 32.999991 49.500049 M 33.999923 49.500049 L 34.999854 49.500049 M 38.999878 49.500049 L 40.000106 49.500049 M 41.000038 49.500049 L 41.999969 49.500049 M 42.999901 49.500049 L 46.999924 49.500049 M 50.000016 49.500049 L 51.999879 49.500049 M 53.000107 49.500049 L 54.999971 49.500049 M 2.000033 50.49998 L 2.999965 50.49998 M 3.999897 50.49998 L 6.999988 50.49998 M 7.99992 50.49998 L 9.000148 50.49998 M 10.00008 50.49998 L 11.999943 50.49998 M 12.999875 50.49998 L 14.000103 50.49998 M 15.000035 50.49998 L 15.999966 50.49998 M 18.000126 50.49998 L 19.000058 50.49998 M 19.99999 50.49998 L 20.999921 50.49998 M 21.999853 50.49998 L 23.000081 50.49998 M 24.000013 50.49998 L 24.999945 50.49998 M 25.999876 50.49998 L 31.000128 50.49998 M 32.999991 50.49998 L 33.999923 50.49998 M 34.999854 50.49998 L 41.000038 50.49998 M 42.999901 50.49998 L 44.000129 50.49998 M 45.000061 50.49998 L 53.000107 50.49998 M 2.000033 51.499912 L 2.999965 51.499912 M 3.999897 51.499912 L 6.999988 51.499912 M 7.99992 51.499912 L 9.000148 51.499912 M 10.00008 51.499912 L 12.999875 51.499912 M 15.999966 51.499912 L 18.000126 51.499912 M 19.000058 51.499912 L 20.999921 51.499912 M 21.999853 51.499912 L 24.000013 51.499912 M 24.999945 51.499912 L 25.999876 51.499912 M 27.000104 51.499912 L 28.000036 51.499912 M 29.9999 51.499912 L 31.000128 51.499912 M 32.000059 51.499912 L 33.999923 51.499912 M 37.000014 51.499912 L 40.000106 51.499912 M 44.000129 51.499912 L 45.000061 51.499912 M 45.999993 51.499912 L 49.000084 51.499912 M 53.000107 51.499912 L 54.999971 51.499912 M 2.000033 52.50014 L 2.999965 52.50014 M 3.999897 52.50014 L 6.999988 52.50014 M 7.99992 52.50014 L 9.000148 52.50014 M 10.00008 52.50014 L 11.000011 52.50014 M 11.999943 52.50014 L 12.999875 52.50014 M 14.000103 52.50014 L 15.000035 52.50014 M 18.000126 52.50014 L 23.000081 52.50014 M 25.999876 52.50014 L 27.000104 52.50014 M 28.000036 52.50014 L 28.999968 52.50014 M 36.000083 52.50014 L 38.999878 52.50014 M 41.000038 52.50014 L 41.999969 52.50014 M 45.000061 52.50014 L 45.999993 52.50014 M 46.999924 52.50014 L 47.999856 52.50014 M 49.000084 52.50014 L 50.999948 52.50014 M 51.999879 52.50014 L 54.999971 52.50014 M 2.000033 53.500072 L 2.999965 53.500072 M 7.99992 53.500072 L 9.000148 53.500072 M 11.000011 53.500072 L 11.999943 53.500072 M 15.000035 53.500072 L 15.999966 53.500072 M 18.000126 53.500072 L 19.000058 53.500072 M 19.99999 53.500072 L 32.999991 53.500072 M 33.999923 53.500072 L 34.999854 53.500072 M 36.000083 53.500072 L 37.000014 53.500072 M 41.999969 53.500072 L 42.999901 53.500072 M 45.000061 53.500072 L 45.999993 53.500072 M 49.000084 53.500072 L 50.000016 53.500072 M 50.999948 53.500072 L 51.999879 53.500072 M 53.000107 53.500072 L 54.000039 53.500072 M 2.000033 54.500004 L 9.000148 54.500004 M 10.00008 54.500004 L 11.000011 54.500004 M 11.999943 54.500004 L 15.999966 54.500004 M 18.000126 54.500004 L 19.000058 54.500004 M 23.000081 54.500004 L 28.000036 54.500004 M 32.999991 54.500004 L 33.999923 54.500004 M 37.000014 54.500004 L 38.999878 54.500004 M 41.000038 54.500004 L 41.999969 54.500004 M 44.000129 54.500004 L 45.999993 54.500004 M 46.999924 54.500004 L 50.000016 54.500004 M 50.999948 54.500004 L 51.999879 54.500004 " stroke="#000000" stroke-width="1" stroke-opacity="1" stroke-miterlimit="4"/></svg>